<?xml version="1.0" encoding="UTF-8" standalone="no"?>
<!-- Created with Inkscape (http://www.inkscape.org/) -->

<svg
   xmlns:dc="http://purl.org/dc/elements/1.1/"
   xmlns:cc="http://creativecommons.org/ns#"
   xmlns:rdf="http://www.w3.org/1999/02/22-rdf-syntax-ns#"
   xmlns:svg="http://www.w3.org/2000/svg"
   xmlns="http://www.w3.org/2000/svg"
   xmlns:sodipodi="http://sodipodi.sourceforge.net/DTD/sodipodi-0.dtd"
   xmlns:inkscape="http://www.inkscape.org/namespaces/inkscape"
   width="19.525009mm"
   height="44.977367mm"
   viewBox="0 0 69.183104 159.36862"
   id="svg2"
   version="1.1"
   inkscape:version="0.91 r13725"
   sodipodi:docname="person.svg">
  <defs
     id="defs4" />
  <sodipodi:namedview
     id="base"
     pagecolor="#ffffff"
     bordercolor="#666666"
     borderopacity="1.0"
     inkscape:pageopacity="0.0"
     inkscape:pageshadow="2"
     inkscape:zoom="1"
     inkscape:cx="113.28118"
     inkscape:cy="162.84567"
     inkscape:document-units="px"
     inkscape:current-layer="layer1"
     showgrid="false"
     inkscape:window-width="1920"
     inkscape:window-height="1005"
     inkscape:window-x="0"
     inkscape:window-y="24"
     inkscape:window-maximized="1"
     fit-margin-top="0"
     fit-margin-left="0"
     fit-margin-right="0"
     fit-margin-bottom="0" />
  <metadata
     id="metadata7">
    <rdf:RDF>
      <cc:Work
         rdf:about="">
        <dc:format>image/svg+xml</dc:format>
        <dc:type
           rdf:resource="http://purl.org/dc/dcmitype/StillImage" />
        <dc:title></dc:title>
      </cc:Work>
    </rdf:RDF>
  </metadata>
  <g
     inkscape:label="Ebene 1"
     inkscape:groupmode="layer"
     id="layer1"
     transform="translate(-53.684383,-692.34523)">
    <path
       style="fill:#000000"
       d="m 83.207029,692.35742 c -2.41529,0.13006 -4.71213,1.30306 -5.24414,3.63281 -0.98351,4.30698 -0.0523,12.27681 1.55078,13.26758 1.82717,1.12926 -0.33115,3.08012 -4.90039,4.42774 -9.74908,2.87528 -13.6215,15.95883 -10.17578,34.38281 0.83576,4.46875 1.29108,9.95312 1.01172,12.1875 -0.27936,2.23437 0.0215,4.0625 0.66797,4.0625 3.26747,0 5.50948,7.09272 3.35937,10.625 -0.41849,0.6875 -0.64129,6.24826 -0.49609,12.35547 0.24545,10.32385 0.0363,11.37782 -2.98828,15.0039 -7.94586,9.52617 -10.08334,14.96088 -9.61914,24.4668 0.21313,4.36465 -0.42182,10.57974 -1.4336,14.03125 -0.99896,3.40776 -1.50728,6.50249 -1.13086,6.87891 0.37642,0.37642 2.25772,0.86393 4.18164,1.08203 1.92391,0.2181 5.18555,0.94636 7.24805,1.61914 2.0625,0.67277 3.8499,1.27098 3.97266,1.33008 0.12277,0.0591 1.1192,-0.78717 2.21289,-1.88086 1.81804,-1.81805 1.72083,-2.19827 -1.13086,-4.44141 -3.42925,-2.69745 -6.25196,-11.04674 -5.0332,-14.88672 0.42654,-1.34391 0.97932,-3.98709 1.22851,-5.875 0.2492,-1.88791 0.53477,-3.43359 0.63477,-3.43359 0.1,0 0.36999,-0.97934 0.59961,-2.17774 0.22962,-1.19837 2.0731,-4.29211 4.09765,-6.875 4.8063,-6.13175 7.15059,-10.54112 6.72071,-12.63867 -0.19064,-0.93016 0.0568,-2.61766 0.55078,-3.75 0.49398,-1.13234 1.05889,-2.62109 1.2539,-3.30859 0.19501,-0.6875 0.91325,-3.07813 1.59766,-5.3125 0.68441,-2.23438 0.44534,-3.3838 0.55469,-4.0625 0.0604,-0.3751 -0.0106,-0.81917 0.82031,-1.82031 0.83082,-1.00113 0.83475,-1.98965 0.88672,-2.82813 0.0403,-0.65045 0.13151,-2.40706 1.05273,-4.11719 1.26814,-2.35414 1.83067,-2.65398 2.31641,-1.23437 1.43796,4.20252 3.1428,23.70849 3.86523,44.21875 0.31175,8.8508 0.88648,16.41186 1.27735,16.80273 0.39088,0.39088 1.67982,0.8328 2.86523,0.98243 16.200321,2.04482 17.631441,1.44588 10.992191,-4.59571 -2.39737,-2.18156 -4.28983,-4.31914 -4.20703,-4.75 0.0828,-0.43088 -0.55362,-2.4707 -1.41211,-4.5332 -0.990241,-2.37901 -1.295851,-6.49198 -0.83789,-11.25 1.99885,-20.76683 3.12175,-46.875 2.01562,-46.875 -1.25953,0 -1.36379,-7.2928 -0.11523,-8.06445 0.64971,-0.40155 0.86282,-2.6878 0.47461,-5.08008 -0.38822,-2.39229 -0.0692,-6.74081 0.70898,-9.66406 1.25489,-4.71434 2.311,-11.75921 2.57227,-17.15625 0.21397,-4.42002 3.56069,3.57323 4.41992,10.55664 0.5053,4.10683 1.70735,8.59252 2.66992,9.96679 1.03999,1.4848 1.75,5.61951 1.75,10.19141 0,5.4147 0.57203,8.17046 1.93164,9.29883 1.06254,0.88183 1.6497,2.33724 1.30469,3.23633 -0.86448,2.25278 1.19099,3.28714 2.75977,1.38867 2.19432,-2.65549 2.98724,-10.14618 1.48828,-14.06055 -0.78707,-2.05534 -1.68622,-5.98828 -1.99805,-8.73828 -1.62252,-14.30896 -3.43804,-20.12025 -9.17578,-29.375 -0.63935,-1.03125 -1.48697,-3.42188 -1.88477,-5.3125 -0.69896,-3.322 -0.99523,-3.4375 -8.82422,-3.4375 -7.755701,0 -8.101561,-0.12968 -8.101561,-3.05078 0,-1.67817 -0.5625,-3.39932 -1.25,-3.82422 -0.6875,-0.4249 -1.25,-1.84406 -1.25,-3.1543 0,-3.04232 -3.30088,-4.59886 -6.40625,-4.43164 z m -9.09765,37.36133 c 0.11897,0.0171 0.24047,0.0628 0.36328,0.13867 1.82917,1.13049 2.44961,9.71147 1.11132,15.36133 -2.23824,9.44912 -4.32938,8.98117 -4.46484,-1 -0.11579,-8.53149 1.20563,-14.75592 2.99024,-14.5 z"
       id="path4171"
       inkscape:connector-curvature="0"
       sodipodi:nodetypes="ssssssssssssssscsssssssssssscssssssscssssssssssssssssssssssscsss" />
  </g>
</svg>
